<svg width="250" height="76" viewBox="0 0 250 76" fill="none" xmlns="http://www.w3.org/2000/svg">
<path d="M8 22L26 4H64L76 16L62 28H40L32 36L20 28L8 22Z" fill="#C4B5FD"/>
<path d="M8 22L20 28V44L8 50V22Z" fill="#5B21B6"/>
<path d="M20 28L32 36L20 44V28Z" fill="#6366F1"/>
<path d="M20 44L32 36L40 44H62L76 56L64 68H26L8 50L20 44Z" fill="#7C3AED"/>
<path d="M118.827 32.5433H114.843C114.729 31.8899 114.52 31.3111 114.214 30.8068C113.909 30.2955 113.529 29.8622 113.075 29.5071C112.62 29.152 112.102 28.8857 111.519 28.7081C110.944 28.5234 110.322 28.4311 109.655 28.4311C108.469 28.4311 107.418 28.7294 106.501 29.326C105.585 29.9155 104.868 30.782 104.349 31.9254C103.831 33.0618 103.572 34.4503 103.572 36.0909C103.572 37.7599 103.831 39.1662 104.349 40.3097C104.875 41.446 105.592 42.3054 106.501 42.8878C107.418 43.4631 108.465 43.7507 109.644 43.7507C110.298 43.7507 110.908 43.6655 111.477 43.495C112.052 43.3175 112.567 43.0582 113.021 42.7173C113.483 42.3764 113.87 41.9574 114.183 41.4602C114.502 40.9631 114.722 40.3949 114.843 39.7557L118.827 39.777C118.678 40.8139 118.355 41.7869 117.858 42.696C117.368 43.6051 116.725 44.4077 115.93 45.1037C115.134 45.7926 114.204 46.3324 113.138 46.723C112.073 47.1065 110.891 47.2983 109.591 47.2983C107.673 47.2983 105.962 46.8544 104.456 45.9666C102.95 45.0788 101.764 43.7969 100.898 42.1207C100.031 40.4446 99.598 38.4347 99.598 36.0909C99.598 33.7401 100.035 31.7301 100.908 30.0611C101.782 28.3849 102.972 27.103 104.477 26.2152C105.983 25.3274 107.688 24.8835 109.591 24.8835C110.805 24.8835 111.935 25.054 112.979 25.3949C114.023 25.7358 114.953 26.2365 115.77 26.897C116.587 27.5504 117.258 28.353 117.783 29.3047C118.316 30.2493 118.664 31.3288 118.827 32.5433ZM128.921 47.3196C127.28 47.3196 125.863 46.9787 124.67 46.2969C123.484 45.608 122.571 44.6349 121.932 43.3778C121.293 42.1136 120.973 40.6257 120.973 38.9141C120.973 37.2308 121.293 35.7536 121.932 34.4822C122.578 33.2038 123.48 32.2095 124.638 31.4993C125.796 30.782 127.156 30.4233 128.718 30.4233C129.727 30.4233 130.679 30.5866 131.573 30.9134C132.475 31.233 133.271 31.7301 133.96 32.4048C134.656 33.0795 135.203 33.9389 135.6 34.983C135.998 36.0199 136.197 37.2557 136.197 38.6903V39.8729H122.784V37.2734H132.5C132.493 36.5348 132.333 35.8778 132.021 35.3026C131.708 34.7202 131.272 34.2621 130.711 33.9283C130.157 33.5945 129.51 33.4276 128.772 33.4276C127.983 33.4276 127.291 33.6193 126.694 34.0028C126.098 34.3793 125.632 34.8764 125.299 35.4943C124.972 36.1051 124.805 36.7763 124.798 37.5078V39.777C124.798 40.7287 124.972 41.5455 125.32 42.2273C125.668 42.902 126.154 43.4205 126.779 43.7827C127.404 44.1378 128.136 44.3153 128.974 44.3153C129.535 44.3153 130.043 44.2372 130.497 44.081C130.952 43.9176 131.346 43.6797 131.68 43.3672C132.014 43.0547 132.266 42.6676 132.436 42.206L136.037 42.6108C135.81 43.5625 135.377 44.3935 134.738 45.1037C134.105 45.8068 133.296 46.3537 132.309 46.7443C131.321 47.1278 130.192 47.3196 128.921 47.3196ZM127.131 28.4844L129.517 23.6158H133.289L130.018 28.4844H127.131ZM138.86 47V30.6364H142.599V33.3636H142.769C143.068 32.419 143.579 31.6911 144.304 31.1797C145.035 30.6612 145.87 30.402 146.807 30.402C147.02 30.402 147.258 30.4126 147.521 30.4339C147.791 30.4482 148.014 30.473 148.192 30.5085V34.0561C148.029 33.9993 147.769 33.9496 147.414 33.907C147.066 33.8572 146.729 33.8324 146.402 33.8324C145.699 33.8324 145.067 33.9851 144.506 34.2905C143.952 34.5888 143.515 35.0043 143.196 35.5369C142.876 36.0696 142.716 36.6839 142.716 37.38V47H138.86ZM156.725 47.3196C155.084 47.3196 153.667 46.9787 152.474 46.2969C151.288 45.608 150.375 44.6349 149.736 43.3778C149.097 42.1136 148.777 40.6257 148.777 38.9141C148.777 37.2308 149.097 35.7536 149.736 34.4822C150.382 33.2038 151.284 32.2095 152.442 31.4993C153.6 30.782 154.96 30.4233 156.522 30.4233C157.531 30.4233 158.482 30.5866 159.377 30.9134C160.279 31.233 161.075 31.7301 161.764 32.4048C162.46 33.0795 163.007 33.9389 163.404 34.983C163.802 36.0199 164.001 37.2557 164.001 38.6903V39.8729H150.588V37.2734H160.304C160.297 36.5348 160.137 35.8778 159.825 35.3026C159.512 34.7202 159.076 34.2621 158.514 33.9283C157.96 33.5945 157.314 33.4276 156.576 33.4276C155.787 33.4276 155.095 33.6193 154.498 34.0028C153.902 34.3793 153.436 34.8764 153.103 35.4943C152.776 36.1051 152.609 36.7763 152.602 37.5078V39.777C152.602 40.7287 152.776 41.5455 153.124 42.2273C153.472 42.902 153.958 43.4205 154.583 43.7827C155.208 44.1378 155.94 44.3153 156.778 44.3153C157.339 44.3153 157.847 44.2372 158.301 44.081C158.756 43.9176 159.15 43.6797 159.484 43.3672C159.818 43.0547 160.07 42.6676 160.24 42.206L163.841 42.6108C163.614 43.5625 163.181 44.3935 162.541 45.1037C161.909 45.8068 161.1 46.3537 160.112 46.7443C159.125 47.1278 157.996 47.3196 156.725 47.3196ZM166.834 47V25.1818H170.691V33.3423H170.85C171.049 32.9446 171.33 32.522 171.692 32.0746C172.054 31.62 172.544 31.233 173.162 30.9134C173.78 30.5866 174.568 30.4233 175.527 30.4233C176.791 30.4233 177.931 30.7464 178.947 31.3928C179.97 32.032 180.779 32.9801 181.376 34.2372C181.98 35.4872 182.281 37.0213 182.281 38.8395C182.281 40.6364 181.987 42.1634 181.397 43.4205C180.808 44.6776 180.005 45.6364 178.99 46.2969C177.974 46.9574 176.823 47.2876 175.538 47.2876C174.6 47.2876 173.823 47.1314 173.205 46.8189C172.587 46.5064 172.09 46.13 171.713 45.6896C171.344 45.2422 171.056 44.8196 170.85 44.4219H170.627V47H166.834ZM170.616 38.8182C170.616 39.8764 170.765 40.8033 171.063 41.5987C171.369 42.3942 171.806 43.0156 172.374 43.4631C172.949 43.9034 173.645 44.1236 174.462 44.1236C175.314 44.1236 176.028 43.8963 176.603 43.4418C177.178 42.9801 177.612 42.3516 177.903 41.5561C178.201 40.7536 178.35 39.8409 178.35 38.8182C178.35 37.8026 178.205 36.9006 177.914 36.1122C177.622 35.3239 177.189 34.706 176.614 34.2585C176.039 33.8111 175.321 33.5874 174.462 33.5874C173.638 33.5874 172.938 33.804 172.363 34.2372C171.788 34.6705 171.351 35.2777 171.053 36.0589C170.762 36.8402 170.616 37.7599 170.616 38.8182ZM184.96 47V30.6364H188.699V33.3636H188.87C189.168 32.419 189.68 31.6911 190.404 31.1797C191.135 30.6612 191.97 30.402 192.907 30.402C193.121 30.402 193.358 30.4126 193.621 30.4339C193.891 30.4482 194.115 30.473 194.292 30.5085V34.0561C194.129 33.9993 193.87 33.9496 193.515 33.907C193.167 33.8572 192.829 33.8324 192.503 33.8324C191.8 33.8324 191.167 33.9851 190.606 34.2905C190.052 34.5888 189.616 35.0043 189.296 35.5369C188.976 36.0696 188.817 36.6839 188.817 37.38V47H184.96ZM202.719 47.3196C201.121 47.3196 199.736 46.968 198.564 46.2649C197.392 45.5618 196.483 44.5781 195.836 43.3139C195.197 42.0497 194.878 40.5724 194.878 38.8821C194.878 37.1918 195.197 35.7109 195.836 34.4396C196.483 33.1683 197.392 32.1811 198.564 31.478C199.736 30.7749 201.121 30.4233 202.719 30.4233C204.317 30.4233 205.701 30.7749 206.873 31.478C208.045 32.1811 208.951 33.1683 209.59 34.4396C210.236 35.7109 210.559 37.1918 210.559 38.8821C210.559 40.5724 210.236 42.0497 209.59 43.3139C208.951 44.5781 208.045 45.5618 206.873 46.2649C205.701 46.968 204.317 47.3196 202.719 47.3196ZM202.74 44.2301C203.606 44.2301 204.331 43.9922 204.913 43.5163C205.496 43.0334 205.929 42.3871 206.213 41.5774C206.504 40.7678 206.65 39.8658 206.65 38.8714C206.65 37.87 206.504 36.9645 206.213 36.1548C205.929 35.3381 205.496 34.6882 204.913 34.2053C204.331 33.7223 203.606 33.4808 202.74 33.4808C201.852 33.4808 201.113 33.7223 200.524 34.2053C199.942 34.6882 199.505 35.3381 199.214 36.1548C198.929 36.9645 198.787 37.87 198.787 38.8714C198.787 39.8658 198.929 40.7678 199.214 41.5774C199.505 42.3871 199.942 43.0334 200.524 43.5163C201.113 43.9922 201.852 44.2301 202.74 44.2301Z" fill="#0F172A"/>
</svg>
